<!DOCTYPE svg PUBLIC "-//W3C//DTD SVG 1.1//EN" "http://www.w3.org/Graphics/SVG/1.1/DTD/svg11.dtd">
<!-- Uploaded to: SVG Repo, www.svgrepo.com, Transformed by: SVG Repo Mixer Tools -->
<svg version="1.1" id="Layer_1" xmlns="http://www.w3.org/2000/svg" xmlns:xlink="http://www.w3.org/1999/xlink" viewBox="-50.08 -50.08 600.96 600.96" xml:space="preserve" width="800px" height="800px" fill="#000000" transform="matrix(-1, 0, 0, 1, 0, 0)">
<g id="SVGRepo_bgCarrier" stroke-width="0"/>
<g id="SVGRepo_tracerCarrier" stroke-linecap="round" stroke-linejoin="round" stroke="#CCCCCC" stroke-width="1.0016"/>
<g id="SVGRepo_iconCarrier"> <circle style="fill:#ffffff;" cx="250.4" cy="250.4" r="248.8"/> <path style="fill:#ffffff;" d="M426.4,74.4c96.8,97.6,96.8,254.4,0,352c-97.6,96.8-254.4,96.8-352,0"/> <rect x="194.4" y="226.4" style="fill:#f5cd61;" width="112" height="232"/> <polyline style="fill:#ecd393;" points="194.4,226.4 306.4,226.4 306.4,458.4 "/> <polyline style="fill:#2bab5e;" points="108,110.4 30.4,187.2 0,307.2 202.4,430.4 202.4,254.4 108.8,110.4 "/> <polyline style="fill:#1d9a4f;" points="108.8,110.4 202.4,254.4 202.4,430.4 82.4,357.6 "/> <polyline style="fill:#2bab5e;" points="392.8,110.4 470.4,187.2 500.8,307.2 298.4,430.4 298.4,254.4 392,110.4 "/> <polyline style="fill:#1d9a4f;" points="392,110.4 298.4,254.4 298.4,430.4 418.4,357.6 "/> <polygon style="fill:#E28FAF;" points="274.4,271.2 250.4,276.8 226.4,271.2 226.4,368.8 250.4,344.8 274.4,368.8 "/> <polyline style="fill:#C97396;" points="250.4,344.8 274.4,368.8 274.4,271.2 250.4,276.8 226.4,271.2 "/> <polygon style="fill:#51D687;" points="108.8,110.4 250.4,41.6 392,110.4 369.6,232 250.4,296.8 131.2,232 "/> <polygon style="fill:#3CC676;" points="108.8,110.4 250.4,136.8 392,110.4 369.6,232 250.4,296.8 131.2,232 "/> <polyline style="fill:#2CAF61;" points="250.4,41.6 392,110.4 369.6,232 250.4,296.8 "/> <polygon style="fill:#5E6664;" points="194.4,183.2 154.4,170.4 154.4,148 194.4,160 "/> <polyline style="fill:#2F423F;" points="194.4,160 194.4,183.2 154.4,170.4 "/> <polygon style="fill:#5E6664;" points="306.4,183.2 346.4,170.4 346.4,148 306.4,160 "/> <polyline style="fill:#2F423F;" points="306.4,183.2 346.4,170.4 346.4,148 "/> </g>
</svg>